<svg width="26" height="26" viewBox="0 0 26 26" fill="none" xmlns="http://www.w3.org/2000/svg">
<path d="M15.3568 4.5741C15.358 3.244 12.6458 2.16667 9.30401 2.16667C5.9622 2.16667 3.25242 3.2452 3.25 4.5741M3.25 4.5741C3.25 5.90421 5.95977 6.98154 9.30401 6.98154C12.6482 6.98154 15.358 5.90421 15.358 4.5741L15.358 13.9149M3.25 4.5741V19.0186C3.25121 20.3487 5.96099 21.426 9.30401 21.426C10.9253 21.426 12.3891 21.1697 13.4752 20.7568M3.25121 9.38895C3.25121 10.7191 5.96099 11.7964 9.30523 11.7964C12.6495 11.7964 15.3592 10.7191 15.3592 9.38895M13.5479 15.9192C12.4557 16.3465 10.958 16.6113 9.30401 16.6113C5.96099 16.6113 3.25121 15.534 3.25121 14.2039M22.2378 14.5867C24.3652 16.7016 24.3652 20.1322 22.2378 22.2471C20.1104 24.3621 16.6596 24.3621 14.5323 22.2471C12.4049 20.1322 12.4049 16.7016 14.5323 14.5867C16.6596 12.4718 20.1104 12.4718 22.2378 14.5867Z" stroke="#FFF0F3" stroke-width="2" stroke-linecap="round" stroke-linejoin="round"/>
</svg>
