<svg width="27" height="26" viewBox="0 0 27 26" fill="none" xmlns="http://www.w3.org/2000/svg">
<path d="M15.8568 4.5741C15.858 3.244 13.1458 2.16667 9.80401 2.16667C6.4622 2.16667 3.75242 3.2452 3.75 4.5741M3.75 4.5741C3.75 5.90421 6.45977 6.98154 9.80401 6.98154C13.1482 6.98154 15.858 5.90421 15.858 4.5741L15.858 13.9149M3.75 4.5741V19.0186C3.75121 20.3487 6.46099 21.426 9.80401 21.426C11.4253 21.426 12.8891 21.1697 13.9752 20.7568M3.75121 9.38895C3.75121 10.7191 6.46099 11.7964 9.80523 11.7964C13.1495 11.7964 15.8592 10.7191 15.8592 9.38895M14.0479 15.9192C12.9557 16.3465 11.458 16.6113 9.80401 16.6113C6.46099 16.6113 3.75121 15.534 3.75121 14.2039M22.7378 14.5867C24.8652 16.7016 24.8652 20.1322 22.7378 22.2471C20.6104 24.3621 17.1596 24.3621 15.0323 22.2471C12.9049 20.1322 12.9049 16.7016 15.0323 14.5867C17.1596 12.4718 20.6104 12.4718 22.7378 14.5867Z" stroke="#D1D1D1" stroke-width="2" stroke-linecap="round" stroke-linejoin="round"/>
</svg>
